<svg width="32" height="32" viewBox="0 0 32 32" fill="none" xmlns="http://www.w3.org/2000/svg">
<rect width="32" height="32" fill="white"/>
<path d="M1 6C1 3.23858 3.23858 1 6 1H26C28.7614 1 31 3.23858 31 6V26C31 28.7614 28.7614 31 26 31H6C3.23858 31 1 28.7614 1 26V6Z" fill="#D9D9D9"/>
<path fill-rule="evenodd" clip-rule="evenodd" d="M26 3H6C4.34315 3 3 4.34315 3 6V26C3 27.6569 4.34315 29 6 29H26C27.6569 29 29 27.6569 29 26V6C29 4.34315 27.6569 3 26 3ZM6 1C3.23858 1 1 3.23858 1 6V26C1 28.7614 3.23858 31 6 31H26C28.7614 31 31 28.7614 31 26V6C31 3.23858 28.7614 1 26 1H6Z" fill="black"/>
<path d="M6.62045 23V9.61818H14.6443V11.0557H8.24091V15.5773H14.0432V17.0148H8.24091V23H6.62045Z" fill="black"/>
<path d="M21.3663 23.183C20.5996 23.183 19.9092 23.0305 19.295 22.7256C18.6808 22.4206 18.1885 22.0025 17.8183 21.471C17.448 20.9396 17.2454 20.3341 17.2106 19.6545H18.7788C18.8397 20.26 19.1142 20.761 19.6021 21.1574C20.0943 21.5494 20.6824 21.7455 21.3663 21.7455C21.9151 21.7455 22.403 21.617 22.8299 21.3599C23.2612 21.1029 23.5987 20.7501 23.8427 20.3014C24.091 19.8484 24.2151 19.3366 24.2151 18.7659C24.2151 18.1822 24.0866 17.6616 23.8296 17.2043C23.577 16.7425 23.2285 16.3788 22.7842 16.1131C22.3398 15.8473 21.8324 15.7123 21.2617 15.708C20.8522 15.7036 20.4319 15.7668 20.0006 15.8974C19.5694 16.0238 19.2144 16.1871 18.9356 16.3875L17.4197 16.2045L18.2299 9.61818H25.1822V11.0557H19.589L19.1185 15.0023H19.1969C19.4714 14.7845 19.8155 14.6037 20.2293 14.4599C20.6432 14.3162 21.0744 14.2443 21.5231 14.2443C22.342 14.2443 23.0717 14.4403 23.712 14.8324C24.3567 15.2201 24.862 15.7515 25.2279 16.4267C25.5982 17.1019 25.7833 17.8729 25.7833 18.7398C25.7833 19.5936 25.5916 20.3559 25.2083 21.0267C24.8293 21.6932 24.3066 22.2203 23.6401 22.608C22.9737 22.9913 22.2157 23.183 21.3663 23.183Z" fill="black"/>
</svg>
